<svg width="26" height="26" viewBox="0 0 26 26" fill="none" xmlns="http://www.w3.org/2000/svg">
<path d="M9.1339 4.93435L8.13404 4.91768C6.47742 4.89006 5.11207 6.21064 5.08446 7.86726L4.91778 17.8659C4.89017 19.5225 6.21074 20.8878 7.86736 20.9155L8.86723 20.9321M16.9328 17.066L20.9989 13.1332M20.9989 13.1332L17.0661 9.06713M20.9989 13.1332L9.00056 12.9332" stroke="#FD7423" stroke-width="2" stroke-linecap="round" stroke-linejoin="round"/>
<path d="M9.1339 4.93435L8.13404 4.91768C6.47742 4.89006 5.11207 6.21064 5.08446 7.86726L4.91778 17.8659C4.89017 19.5225 6.21074 20.8878 7.86736 20.9155L8.86723 20.9321M16.9328 17.066L20.9989 13.1332M20.9989 13.1332L17.0661 9.06713M20.9989 13.1332L9.00056 12.9332" stroke="black" stroke-opacity="0.2" stroke-width="2" stroke-linecap="round" stroke-linejoin="round"/>
</svg>
